<svg width="28" height="29" viewBox="0 0 28 29" fill="none" xmlns="http://www.w3.org/2000/svg">
<path d="M20.2499 19.5H7.7499C7.64051 19.4993 7.53321 19.47 7.43872 19.4149C7.34423 19.3597 7.26587 19.2808 7.21146 19.1859C7.15705 19.091 7.1285 18.9835 7.12866 18.8741C7.12883 18.7647 7.1577 18.6572 7.2124 18.5625C7.72725 17.6719 8.3749 15.4227 8.3749 12.625C8.3749 11.1332 8.96753 9.70242 10.0224 8.64752C11.0773 7.59263 12.5081 7 13.9999 7C15.4917 7 16.9225 7.59263 17.9774 8.64752C19.0323 9.70242 19.6249 11.1332 19.6249 12.625C19.6249 15.4234 20.2733 17.6719 20.789 18.5625C20.8437 18.6574 20.8726 18.7649 20.8727 18.8745C20.8728 18.984 20.8441 19.0916 20.7895 19.1865C20.7349 19.2815 20.6563 19.3604 20.5616 19.4154C20.4669 19.4705 20.3594 19.4996 20.2499 19.5Z" fill="#1C1C1C" fill-opacity="0.1"/>
<path d="M21.3282 18.2453C20.8946 17.4984 20.2501 15.3852 20.2501 12.625C20.2501 10.9674 19.5916 9.37769 18.4195 8.20558C17.2474 7.03348 15.6577 6.375 14.0001 6.375C12.3425 6.375 10.7528 7.03348 9.58065 8.20558C8.40855 9.37769 7.75007 10.9674 7.75007 12.625C7.75007 15.3859 7.10476 17.4984 6.67116 18.2453C6.56044 18.4352 6.50174 18.6509 6.50098 18.8707C6.50023 19.0905 6.55745 19.3066 6.66687 19.4973C6.77629 19.6879 6.93404 19.8463 7.12422 19.9565C7.31439 20.0667 7.53027 20.1248 7.75007 20.125H10.9384C11.0825 20.8306 11.466 21.4647 12.0239 21.9201C12.5818 22.3756 13.2799 22.6243 14.0001 22.6243C14.7202 22.6243 15.4183 22.3756 15.9762 21.9201C16.5341 21.4647 16.9176 20.8306 17.0618 20.125H20.2501C20.4698 20.1247 20.6856 20.0665 20.8757 19.9562C21.0657 19.846 21.2234 19.6875 21.3327 19.4969C21.442 19.3063 21.4992 19.0903 21.4984 18.8705C21.4976 18.6508 21.4389 18.4351 21.3282 18.2453ZM14.0001 21.375C13.6124 21.3749 13.2344 21.2546 12.9179 21.0308C12.6014 20.8069 12.3621 20.4905 12.2329 20.125H15.7673C15.638 20.4905 15.3987 20.8069 15.0823 21.0308C14.7658 21.2546 14.3877 21.3749 14.0001 21.375ZM7.75007 18.875C8.35163 17.8406 9.00007 15.4438 9.00007 12.625C9.00007 11.2989 9.52686 10.0271 10.4645 9.08947C11.4022 8.15178 12.674 7.625 14.0001 7.625C15.3262 7.625 16.5979 8.15178 17.5356 9.08947C18.4733 10.0271 19.0001 11.2989 19.0001 12.625C19.0001 15.4414 19.6469 17.8383 20.2501 18.875H7.75007Z" fill="#1C1C1C"/>
</svg>
