<svg width="28" height="29" viewBox="0 0 28 29" fill="none" xmlns="http://www.w3.org/2000/svg">
<path d="M18.375 14.5C18.375 15.3653 18.1184 16.2112 17.6377 16.9306C17.157 17.6501 16.4737 18.2108 15.6742 18.542C14.8748 18.8731 13.9951 18.9597 13.1465 18.7909C12.2978 18.6221 11.5183 18.2054 10.9064 17.5936C10.2946 16.9817 9.87788 16.2022 9.70907 15.3535C9.54026 14.5049 9.6269 13.6252 9.95803 12.8258C10.2892 12.0263 10.8499 11.3431 11.5694 10.8623C12.2888 10.3816 13.1347 10.125 14 10.125C15.1603 10.125 16.2731 10.5859 17.0936 11.4064C17.9141 12.2269 18.375 13.3397 18.375 14.5Z" fill="#1C1C1C" fill-opacity="0.1"/>
<path d="M13.375 7.625V5.75C13.375 5.58424 13.4408 5.42527 13.5581 5.30806C13.6753 5.19085 13.8342 5.125 14 5.125C14.1658 5.125 14.3247 5.19085 14.4419 5.30806C14.5592 5.42527 14.625 5.58424 14.625 5.75V7.625C14.625 7.79076 14.5592 7.94973 14.4419 8.06694C14.3247 8.18415 14.1658 8.25 14 8.25C13.8342 8.25 13.6753 8.18415 13.5581 8.06694C13.4408 7.94973 13.375 7.79076 13.375 7.625ZM19 14.5C19 15.4889 18.7068 16.4556 18.1573 17.2779C17.6079 18.1001 16.827 18.741 15.9134 19.1194C14.9998 19.4978 13.9945 19.5969 13.0245 19.4039C12.0546 19.211 11.1637 18.7348 10.4645 18.0355C9.7652 17.3363 9.289 16.4454 9.09607 15.4755C8.90315 14.5055 9.00216 13.5002 9.3806 12.5866C9.75904 11.673 10.3999 10.8921 11.2221 10.3427C12.0444 9.79324 13.0111 9.5 14 9.5C15.3256 9.50145 16.5966 10.0287 17.5339 10.9661C18.4713 11.9034 18.9986 13.1744 19 14.5ZM17.75 14.5C17.75 13.7583 17.5301 13.0333 17.118 12.4166C16.706 11.7999 16.1203 11.3193 15.4351 11.0355C14.7498 10.7516 13.9958 10.6774 13.2684 10.8221C12.541 10.9668 11.8728 11.3239 11.3483 11.8483C10.8239 12.3728 10.4668 13.041 10.3221 13.7684C10.1774 14.4958 10.2516 15.2498 10.5355 15.9351C10.8193 16.6203 11.2999 17.206 11.9166 17.618C12.5333 18.0301 13.2583 18.25 14 18.25C14.9942 18.249 15.9475 17.8535 16.6505 17.1505C17.3535 16.4475 17.749 15.4942 17.75 14.5ZM8.55781 9.94219C8.67509 10.0595 8.83415 10.1253 9 10.1253C9.16585 10.1253 9.32491 10.0595 9.44219 9.94219C9.55946 9.82491 9.62535 9.66585 9.62535 9.5C9.62535 9.33415 9.55946 9.17509 9.44219 9.05781L8.19219 7.80781C8.07491 7.69054 7.91585 7.62465 7.75 7.62465C7.58415 7.62465 7.42509 7.69054 7.30781 7.80781C7.19054 7.92509 7.12465 8.08415 7.12465 8.25C7.12465 8.41585 7.19054 8.57491 7.30781 8.69219L8.55781 9.94219ZM8.55781 19.0578L7.30781 20.3078C7.19054 20.4251 7.12465 20.5841 7.12465 20.75C7.12465 20.9159 7.19054 21.0749 7.30781 21.1922C7.42509 21.3095 7.58415 21.3753 7.75 21.3753C7.91585 21.3753 8.07491 21.3095 8.19219 21.1922L9.44219 19.9422C9.50026 19.8841 9.54632 19.8152 9.57775 19.7393C9.60917 19.6634 9.62535 19.5821 9.62535 19.5C9.62535 19.4179 9.60917 19.3366 9.57775 19.2607C9.54632 19.1848 9.50026 19.1159 9.44219 19.0578C9.38412 18.9997 9.31518 18.9537 9.23931 18.9223C9.16344 18.8908 9.08212 18.8747 9 18.8747C8.91788 18.8747 8.83656 18.8908 8.76069 18.9223C8.68482 18.9537 8.61588 18.9997 8.55781 19.0578ZM19 10.125C19.0821 10.1251 19.1634 10.109 19.2393 10.0776C19.3152 10.0462 19.3841 10.0002 19.4422 9.94219L20.6922 8.69219C20.8095 8.57491 20.8753 8.41585 20.8753 8.25C20.8753 8.08415 20.8095 7.92509 20.6922 7.80781C20.5749 7.69054 20.4159 7.62465 20.25 7.62465C20.0841 7.62465 19.9251 7.69054 19.8078 7.80781L18.5578 9.05781C18.4703 9.14522 18.4107 9.25663 18.3865 9.37793C18.3624 9.49924 18.3748 9.62498 18.4221 9.73924C18.4695 9.85351 18.5496 9.95116 18.6525 10.0198C18.7554 10.0885 18.8763 10.1251 19 10.125ZM19.4422 19.0578C19.3249 18.9405 19.1659 18.8747 19 18.8747C18.8341 18.8747 18.6751 18.9405 18.5578 19.0578C18.4405 19.1751 18.3747 19.3341 18.3747 19.5C18.3747 19.6659 18.4405 19.8249 18.5578 19.9422L19.8078 21.1922C19.8659 21.2503 19.9348 21.2963 20.0107 21.3277C20.0866 21.3592 20.1679 21.3753 20.25 21.3753C20.3321 21.3753 20.4134 21.3592 20.4893 21.3277C20.5652 21.2963 20.6341 21.2503 20.6922 21.1922C20.7503 21.1341 20.7963 21.0652 20.8277 20.9893C20.8592 20.9134 20.8753 20.8321 20.8753 20.75C20.8753 20.6679 20.8592 20.5866 20.8277 20.5107C20.7963 20.4348 20.7503 20.3659 20.6922 20.3078L19.4422 19.0578ZM7.75 14.5C7.75 14.3342 7.68415 14.1753 7.56694 14.0581C7.44973 13.9408 7.29076 13.875 7.125 13.875H5.25C5.08424 13.875 4.92527 13.9408 4.80806 14.0581C4.69085 14.1753 4.625 14.3342 4.625 14.5C4.625 14.6658 4.69085 14.8247 4.80806 14.9419C4.92527 15.0592 5.08424 15.125 5.25 15.125H7.125C7.29076 15.125 7.44973 15.0592 7.56694 14.9419C7.68415 14.8247 7.75 14.6658 7.75 14.5ZM14 20.75C13.8342 20.75 13.6753 20.8158 13.5581 20.9331C13.4408 21.0503 13.375 21.2092 13.375 21.375V23.25C13.375 23.4158 13.4408 23.5747 13.5581 23.6919C13.6753 23.8092 13.8342 23.875 14 23.875C14.1658 23.875 14.3247 23.8092 14.4419 23.6919C14.5592 23.5747 14.625 23.4158 14.625 23.25V21.375C14.625 21.2092 14.5592 21.0503 14.4419 20.9331C14.3247 20.8158 14.1658 20.75 14 20.75ZM22.75 13.875H20.875C20.7092 13.875 20.5503 13.9408 20.4331 14.0581C20.3158 14.1753 20.25 14.3342 20.25 14.5C20.25 14.6658 20.3158 14.8247 20.4331 14.9419C20.5503 15.0592 20.7092 15.125 20.875 15.125H22.75C22.9158 15.125 23.0747 15.0592 23.1919 14.9419C23.3092 14.8247 23.375 14.6658 23.375 14.5C23.375 14.3342 23.3092 14.1753 23.1919 14.0581C23.0747 13.9408 22.9158 13.875 22.75 13.875Z" fill="#1C1C1C"/>
</svg>
