<svg width="20" height="21" viewBox="0 0 20 21" fill="none" xmlns="http://www.w3.org/2000/svg">
<path d="M3.84801 15.7287C3.4536 15.7287 3.09233 15.6326 2.7642 15.4403C2.43608 15.2448 2.17424 14.983 1.97869 14.6548C1.78646 14.3267 1.69034 13.9654 1.69034 13.571C1.69034 13.1733 1.78646 12.8104 1.97869 12.4822C2.17424 12.1541 2.43608 11.8923 2.7642 11.6967C3.09233 11.5012 3.4536 11.4034 3.84801 11.4034H5.00142V9.40483H3.84801C3.4536 9.40483 3.09233 9.30871 2.7642 9.11648C2.43608 8.92093 2.17424 8.66075 1.97869 8.33594C1.78646 8.00781 1.69034 7.64489 1.69034 7.24716C1.69034 6.84943 1.78646 6.48816 1.97869 6.16335C2.17424 5.83523 2.43608 5.57505 2.7642 5.38281C3.09233 5.18726 3.4536 5.08949 3.84801 5.08949C4.24574 5.08949 4.60866 5.18726 4.93679 5.38281C5.26491 5.57505 5.52675 5.83523 5.7223 6.16335C5.91785 6.48816 6.01562 6.84943 6.01562 7.24716V8.39062H8.0142V7.24716C8.0142 6.84943 8.11032 6.48816 8.30256 6.16335C8.49811 5.83523 8.75829 5.57505 9.0831 5.38281C9.41122 5.18726 9.77415 5.08949 10.1719 5.08949C10.5696 5.08949 10.9309 5.18726 11.2557 5.38281C11.5838 5.57505 11.844 5.83523 12.0362 6.16335C12.2318 6.48816 12.3295 6.84943 12.3295 7.24716C12.3295 7.64489 12.2318 8.00781 12.0362 8.33594C11.844 8.66075 11.5838 8.92093 11.2557 9.11648C10.9309 9.30871 10.5696 9.40483 10.1719 9.40483H9.02841V11.4034H10.1719C10.5696 11.4034 10.9309 11.5012 11.2557 11.6967C11.5838 11.8923 11.844 12.1541 12.0362 12.4822C12.2318 12.8104 12.3295 13.1733 12.3295 13.571C12.3295 13.9654 12.2318 14.3267 12.0362 14.6548C11.844 14.983 11.5838 15.2448 11.2557 15.4403C10.9309 15.6326 10.5696 15.7287 10.1719 15.7287C9.77415 15.7287 9.41122 15.6326 9.0831 15.4403C8.75829 15.2448 8.49811 14.983 8.30256 14.6548C8.11032 14.3267 8.0142 13.9654 8.0142 13.571V12.4176H6.01562V13.571C6.01562 13.9654 5.91785 14.3267 5.7223 14.6548C5.52675 14.983 5.26491 15.2448 4.93679 15.4403C4.60866 15.6326 4.24574 15.7287 3.84801 15.7287ZM3.84801 14.7145C4.06013 14.7145 4.25237 14.6631 4.42472 14.5604C4.60038 14.4576 4.73958 14.3201 4.84233 14.1477C4.94839 13.9721 5.00142 13.7798 5.00142 13.571V12.4176H3.84801C3.6392 12.4176 3.44697 12.4706 3.27131 12.5767C3.09896 12.6795 2.96141 12.8187 2.85866 12.9943C2.75592 13.1667 2.70455 13.3589 2.70455 13.571C2.70455 13.7798 2.75592 13.9721 2.85866 14.1477C2.96141 14.3201 3.09896 14.4576 3.27131 14.5604C3.44697 14.6631 3.6392 14.7145 3.84801 14.7145ZM3.84801 8.39062H5.00142V7.24716C5.00142 7.03504 4.94839 6.8428 4.84233 6.67045C4.73958 6.49811 4.60038 6.36056 4.42472 6.25781C4.25237 6.15507 4.06013 6.10369 3.84801 6.10369C3.6392 6.10369 3.44697 6.15507 3.27131 6.25781C3.09896 6.36056 2.96141 6.49811 2.85866 6.67045C2.75592 6.8428 2.70455 7.03504 2.70455 7.24716C2.70455 7.45928 2.75592 7.65317 2.85866 7.82883C2.96141 8.00118 3.09896 8.13873 3.27131 8.24148C3.44697 8.34091 3.6392 8.39062 3.84801 8.39062ZM9.02841 8.39062H10.1719C10.384 8.39062 10.5762 8.34091 10.7486 8.24148C10.9209 8.13873 11.0585 8.00118 11.1612 7.82883C11.264 7.65317 11.3153 7.45928 11.3153 7.24716C11.3153 7.03504 11.264 6.8428 11.1612 6.67045C11.0585 6.49811 10.9209 6.36056 10.7486 6.25781C10.5762 6.15507 10.384 6.10369 10.1719 6.10369C9.95975 6.10369 9.76586 6.15507 9.5902 6.25781C9.41785 6.36056 9.2803 6.49811 9.17756 6.67045C9.07813 6.8428 9.02841 7.03504 9.02841 7.24716V8.39062ZM10.1719 14.7145C10.384 14.7145 10.5762 14.6631 10.7486 14.5604C10.9209 14.4576 11.0585 14.3201 11.1612 14.1477C11.264 13.9721 11.3153 13.7798 11.3153 13.571C11.3153 13.3589 11.264 13.1667 11.1612 12.9943C11.0585 12.8187 10.9209 12.6795 10.7486 12.5767C10.5762 12.4706 10.384 12.4176 10.1719 12.4176H9.02841V13.571C9.02841 13.7798 9.07813 13.9721 9.17756 14.1477C9.2803 14.3201 9.41785 14.4576 9.5902 14.5604C9.76586 14.6631 9.95975 14.7145 10.1719 14.7145ZM6.01562 11.4034H8.0142V9.40483H6.01562V11.4034ZM18.687 4.84091L15.4057 17.0312H14.3319L17.6131 4.84091H18.687Z" fill="#1C1C1C" fill-opacity="0.2"/>
</svg>
