<svg width="116" height="25" viewBox="0 0 116 25" fill="none" xmlns="http://www.w3.org/2000/svg">
<path d="M17.6438 19.7992L2.56375 9.48669C1.03558 8.44169 1.55506 6.26584 3.46065 5.75417L19.488 1.44167C19.8275 1.32022 20.1913 1.2808 20.5493 1.32667C20.9072 1.37255 21.249 1.5024 21.5462 1.70545C21.8434 1.9085 22.0875 2.17889 22.2581 2.49418C22.4288 2.80947 22.5211 3.16057 22.5275 3.51834L21.5777 18.1425C21.465 19.8784 19.1719 20.8442 17.6438 19.7992Z" fill="#E9327C"/>
<path d="M12.8609 22.345L3.9768 5.12085C3.77371 4.72681 3.68435 4.28482 3.71855 3.84363C3.75276 3.40244 3.9092 2.97918 4.17063 2.62054C4.43207 2.2619 4.78833 1.9818 5.20014 1.81113C5.61195 1.64046 6.0633 1.58586 6.50442 1.65335L22.9689 4.17251C23.3479 4.23052 23.7077 4.3769 24.0186 4.5996C24.3294 4.82232 24.5825 5.11501 24.7571 5.4536C24.9316 5.79219 25.0227 6.16701 25.0226 6.54726C25.0225 6.92751 24.9314 7.30231 24.7568 7.64085L17.1722 22.3458C16.9686 22.7387 16.6596 23.0684 16.2792 23.2985C15.8988 23.5286 15.4619 23.6503 15.0163 23.6502C14.5707 23.6501 14.1338 23.5283 13.7535 23.2981C13.3732 23.0677 13.0644 22.738 12.8609 22.345Z" fill="#1DACE3"/>
<path d="M22.4872 4.09836L14.2798 2.84253L4.20288 5.55503L8.22505 13.3559L17.6438 19.7992C17.8515 19.9398 18.0801 20.0474 18.3213 20.1184L21.8988 13.1825L22.4872 4.09836Z" fill="#001A49"/>
<path d="M64.0598 6.11168C64.0598 5.80924 64.1502 5.5136 64.3197 5.26213C64.4892 5.01066 64.7301 4.81466 65.012 4.69892C65.2938 4.58318 65.6039 4.5529 65.9031 4.6119C66.2023 4.67091 66.4772 4.81655 66.6929 5.0304C66.9086 5.24426 67.0555 5.51673 67.115 5.81336C67.1745 6.10999 67.144 6.41746 67.0273 6.69688C66.9105 6.97629 66.7128 7.21512 66.4592 7.38314C66.2055 7.55117 65.9073 7.64085 65.6022 7.64085C65.1944 7.63673 64.8045 7.4743 64.5161 7.18842C64.2278 6.90253 64.0639 6.51597 64.0598 6.11168ZM64.317 8.38833H66.8883V16.8833H64.317V8.38833Z" fill="#001A49"/>
<path d="M77.9922 12.6358C78.0222 13.1973 77.9397 13.7592 77.7498 14.289C77.5598 14.8187 77.2661 15.3062 76.8856 15.7231C76.505 16.1399 76.045 16.4781 75.5321 16.7182C75.0192 16.9582 74.4635 17.0953 73.8969 17.1217C73.4204 17.1473 72.9441 17.0677 72.5023 16.8884C72.0607 16.7091 71.6648 16.4347 71.3433 16.085V20.2817H68.7728V8.38833H71.3433V9.18666C71.6649 8.83708 72.0608 8.56283 72.5025 8.38366C72.9441 8.20454 73.4205 8.12499 73.8969 8.15081C74.4635 8.17706 75.0191 8.31409 75.532 8.554C76.045 8.794 76.5049 9.13208 76.8855 9.54891C77.2661 9.96575 77.5598 10.453 77.7498 10.9828C77.9397 11.5126 78.0222 12.0743 77.9922 12.6358ZM75.4217 12.6358C75.4117 12.2381 75.2835 11.8522 75.0532 11.5262C74.823 11.2004 74.5009 10.9491 74.1273 10.8038C73.7537 10.6585 73.3452 10.6257 72.9529 10.7095C72.5606 10.7932 72.2018 10.9898 71.9217 11.2747C71.6415 11.5595 71.4523 11.92 71.3777 12.3109C71.3032 12.7018 71.3466 13.1059 71.5025 13.4725C71.6585 13.8391 71.92 14.1519 72.2544 14.3719C72.5888 14.5919 72.9812 14.7092 73.3825 14.7092C73.6581 14.7215 73.9332 14.6758 74.1897 14.5753C74.4463 14.4747 74.6784 14.3215 74.871 14.1257C75.0636 13.9299 75.2122 13.696 75.3072 13.4392C75.4021 13.1824 75.4412 12.9086 75.4217 12.6358Z" fill="#001A49"/>
<path d="M85.9266 14.3333C85.9266 16.2875 84.2126 17.12 82.3618 17.12C81.6141 17.1871 80.8632 17.0302 80.2063 16.6696C79.5495 16.3091 79.017 15.7614 78.6775 15.0975L80.905 13.8408C80.9956 14.1477 81.1896 14.4145 81.4548 14.5965C81.72 14.7785 82.0401 14.8647 82.3618 14.8408C82.9787 14.8408 83.2864 14.6533 83.2864 14.3142C83.2864 13.3792 79.0709 13.8725 79.0709 10.9325C79.0709 9.08083 80.647 8.14667 82.4332 8.14667C83.1032 8.12582 83.7665 8.28342 84.3538 8.60308C84.9422 8.92275 85.4323 9.39275 85.7744 9.96417L83.5814 11.1367C83.4855 10.9137 83.3255 10.7236 83.1213 10.5902C82.917 10.4568 82.6777 10.3861 82.4332 10.3867C81.9877 10.3867 81.7137 10.5533 81.7137 10.8625C81.7111 11.8375 85.9266 11.1917 85.9266 14.3333Z" fill="#001A49"/>
<path d="M95.3217 8.38831V16.8833H92.7512V16.0833C92.4545 16.4357 92.0771 16.7134 91.6509 16.8936C91.2256 17.0738 90.7624 17.1514 90.3001 17.12C88.5694 17.12 87.0958 15.8966 87.0958 13.6025V8.38831H89.6663V13.2308C89.6445 13.4333 89.668 13.6381 89.7344 13.8307C89.8008 14.0234 89.9084 14.1995 90.0505 14.3466C90.1925 14.4938 90.3648 14.6085 90.5557 14.6827C90.7473 14.7571 90.9524 14.7891 91.1575 14.7766C92.0998 14.7766 92.7546 14.2333 92.7546 13.0266V8.38831H95.3217Z" fill="#001A49"/>
<path d="M110.055 11.6667V16.8833H107.485V11.8883C107.485 11.0392 107.073 10.495 106.251 10.495C105.394 10.495 104.914 11.09 104.914 12.0925V16.8833H102.343V11.8883C102.343 11.0392 101.932 10.495 101.109 10.495C100.253 10.495 99.7726 11.09 99.7726 12.0925V16.8833H97.2021V8.38834H99.7768V9.16667C100.043 8.82009 100.393 8.54525 100.794 8.36717C101.195 8.18917 101.635 8.11364 102.073 8.14751C102.513 8.12619 102.952 8.21822 103.345 8.41467C103.738 8.61109 104.074 8.90517 104.318 9.26834C104.603 8.88842 104.981 8.58625 105.415 8.39025C105.85 8.19421 106.328 8.1107 106.804 8.14751C108.771 8.15085 110.055 9.54334 110.055 11.6667Z" fill="#001A49"/>
<path d="M112.233 8.33582C113.287 8.33582 114.141 7.4889 114.141 6.44416C114.141 5.39942 113.287 4.55249 112.233 4.55249C111.179 4.55249 110.325 5.39942 110.325 6.44416C110.325 7.4889 111.179 8.33582 112.233 8.33582Z" fill="#001A49"/>
<path d="M28.9639 4.48077H31.5352V16.8833H28.9639V4.48077ZM32.9911 12.6358C32.9883 11.7451 33.2521 10.8737 33.7491 10.1319C34.2462 9.38998 34.9541 8.81098 35.7832 8.46823C36.6125 8.12547 37.5255 8.03432 38.407 8.20636C39.2885 8.3784 40.0986 8.80582 40.7348 9.43465C41.3711 10.0634 41.8048 10.8651 41.9811 11.7385C42.1574 12.6118 42.0683 13.5173 41.7252 14.3404C41.3821 15.1635 40.8003 15.8672 40.0535 16.3622C39.3068 16.8573 38.4286 17.1216 37.5302 17.1216C36.9336 17.1279 36.3416 17.0163 35.789 16.7933C35.2364 16.5703 34.734 16.2403 34.3115 15.8227C33.8888 15.4051 33.5544 14.9081 33.3277 14.361C33.101 13.8138 32.9866 13.2273 32.9911 12.6358ZM39.5039 12.6358C39.4938 12.2516 39.3697 11.8789 39.1471 11.5643C38.9245 11.2497 38.6132 11.0071 38.2523 10.867C37.8912 10.7269 37.4967 10.6953 37.1177 10.7764C36.7388 10.8574 36.3924 11.0475 36.1218 11.3226C35.8512 11.5979 35.6686 11.9461 35.5965 12.3236C35.5246 12.7013 35.5665 13.0916 35.7171 13.4457C35.8676 13.7998 36.1202 14.1021 36.4432 14.3146C36.7661 14.5272 37.1451 14.6406 37.5327 14.6408C37.7982 14.6483 38.0624 14.6011 38.3085 14.5024C38.5547 14.4037 38.7776 14.2555 38.9631 14.0671C39.1486 13.8787 39.2927 13.6543 39.3864 13.408C39.48 13.1616 39.5212 12.8986 39.5073 12.6358H39.5039ZM52.3219 8.38582V16.4566C52.3219 19.3108 50.0767 20.5166 47.7979 20.5166C46.9958 20.5767 46.1925 20.4166 45.476 20.0539C44.7595 19.6913 44.1576 19.1401 43.7362 18.4608L45.9293 17.2033C46.1063 17.5578 46.3883 17.8503 46.7376 18.0417C47.0868 18.2331 47.4866 18.3141 47.8836 18.2741C48.1371 18.3084 48.395 18.2859 48.6384 18.2081C48.8818 18.1304 49.1045 17.9996 49.2901 17.8251C49.4756 17.6507 49.6193 17.4372 49.7105 17.2002C49.8017 16.9634 49.8381 16.7092 49.817 16.4566V15.675C49.5159 16.04 49.1327 16.33 48.6982 16.5217C48.2636 16.7135 47.7897 16.8016 47.3146 16.7791C46.1836 16.7442 45.1106 16.2743 44.3229 15.4688C43.5353 14.6633 43.0949 13.5856 43.0949 12.4637C43.0949 11.3418 43.5353 10.2641 44.3229 9.45857C45.1106 8.65307 46.1836 8.18312 47.3146 8.14827C47.7897 8.12574 48.2636 8.21387 48.6982 8.40565C49.1327 8.5974 49.5159 8.8874 49.817 9.25248V8.38582H52.3219ZM49.8203 12.4633C49.8373 12.053 49.7301 11.6471 49.5124 11.2976C49.2948 10.9482 48.9767 10.6713 48.5991 10.5026C48.2215 10.3338 47.8015 10.2809 47.3933 10.3506C46.9851 10.4204 46.6073 10.6096 46.3084 10.8939C46.0095 11.1782 45.8032 11.5446 45.7161 11.9461C45.6289 12.3476 45.6649 12.7656 45.8194 13.1467C45.9738 13.5277 46.2398 13.8542 46.5829 14.0842C46.926 14.3142 47.3308 14.4372 47.7449 14.4375C48.015 14.4562 48.2861 14.4188 48.5407 14.3276C48.7953 14.2363 49.0278 14.0932 49.2234 13.9075C49.4188 13.7218 49.5729 13.4976 49.6758 13.2493C49.7786 13.001 49.8278 12.7341 49.8203 12.4658V12.4633ZM53.7778 12.63C53.775 11.7393 54.0388 10.8679 54.5358 10.1261C55.0328 9.38415 55.7408 8.80515 56.5699 8.4624C57.3992 8.11963 58.3122 8.02849 59.1937 8.20052C60.0751 8.37257 60.8852 8.79998 61.5215 9.42882C62.1578 10.0576 62.5915 10.8593 62.7678 11.7326C62.944 12.606 62.855 13.5115 62.5119 14.3346C62.1688 15.1576 61.587 15.8613 60.8402 16.3564C60.0935 16.8515 59.2153 17.1158 58.3169 17.1158C57.7208 17.1221 57.1293 17.0106 56.5771 16.788C56.0248 16.5654 55.5227 16.2359 55.1003 15.8189C54.6777 15.4019 54.3432 14.9057 54.1162 14.3591C53.8891 13.8126 53.7741 13.2268 53.7778 12.6358V12.63ZM60.2906 12.63C60.2807 12.2456 60.1566 11.8726 59.934 11.5576C59.7113 11.2428 59.3999 11.0001 59.0388 10.8597C58.6776 10.7194 58.2828 10.6878 57.9036 10.7689C57.5244 10.8499 57.1778 11.0401 56.9071 11.3154C56.6363 11.5908 56.4535 11.9392 56.3816 12.3171C56.3095 12.6949 56.3516 13.0855 56.5023 13.4397C56.6531 13.7941 56.9058 14.0964 57.229 14.3091C57.5523 14.5216 57.9316 14.635 58.3194 14.635C58.5841 14.6419 58.8473 14.5946 59.0927 14.4961C59.338 14.3975 59.5602 14.2496 59.7453 14.062C59.9303 13.8743 60.0743 13.6507 60.1681 13.4053C60.262 13.1599 60.3037 12.8979 60.2906 12.6358V12.63Z" fill="#001A49"/>
</svg>
