<svg width="28" height="29" viewBox="0 0 28 29" fill="none" xmlns="http://www.w3.org/2000/svg">
<path d="M20.875 14.5C20.875 15.8597 20.4718 17.189 19.7164 18.3195C18.9609 19.4501 17.8872 20.3313 16.631 20.8517C15.3747 21.372 13.9924 21.5082 12.6588 21.2429C11.3251 20.9776 10.1001 20.3228 9.13864 19.3614C8.17716 18.3999 7.52238 17.1749 7.2571 15.8412C6.99183 14.5076 7.12798 13.1253 7.64833 11.8691C8.16868 10.6128 9.04987 9.53908 10.1805 8.78365C11.311 8.02821 12.6403 7.625 14 7.625C15.8234 7.625 17.5721 8.34933 18.8614 9.63864C20.1507 10.928 20.875 12.6766 20.875 14.5Z" fill="#1C1C1C" fill-opacity="0.1"/>
<path d="M14.625 10.75V14.1461L17.4469 15.8391C17.589 15.9245 17.6914 16.0628 17.7316 16.2237C17.7717 16.3845 17.7463 16.5548 17.6609 16.6969C17.5756 16.839 17.4372 16.9414 17.2764 16.9816C17.1155 17.0217 16.9453 16.9963 16.8031 16.911L13.6781 15.036C13.5856 14.9804 13.5091 14.9018 13.456 14.8079C13.4029 14.714 13.375 14.6079 13.375 14.5V10.75C13.375 10.5843 13.4408 10.4253 13.5581 10.3081C13.6753 10.1909 13.8342 10.125 14 10.125C14.1658 10.125 14.3247 10.1909 14.4419 10.3081C14.5592 10.4253 14.625 10.5843 14.625 10.75ZM14 7.00002C13.0141 6.99757 12.0374 7.19067 11.1266 7.56817C10.2158 7.94566 9.38889 8.50005 8.69375 9.19924C8.12578 9.77424 7.62109 10.3274 7.125 10.9063V9.50002C7.125 9.33426 7.05915 9.17529 6.94194 9.05808C6.82473 8.94087 6.66576 8.87502 6.5 8.87502C6.33424 8.87502 6.17527 8.94087 6.05806 9.05808C5.94085 9.17529 5.875 9.33426 5.875 9.50002V12.625C5.875 12.7908 5.94085 12.9498 6.05806 13.067C6.17527 13.1842 6.33424 13.25 6.5 13.25H9.625C9.79076 13.25 9.94973 13.1842 10.0669 13.067C10.1842 12.9498 10.25 12.7908 10.25 12.625C10.25 12.4593 10.1842 12.3003 10.0669 12.1831C9.94973 12.0659 9.79076 12 9.625 12H7.82812C8.38672 11.3422 8.94297 10.7227 9.57734 10.0805C10.446 9.21186 11.5513 8.61847 12.7553 8.37446C13.9592 8.13045 15.2084 8.24665 16.3467 8.70853C17.485 9.17041 18.4619 9.95749 19.1555 10.9714C19.849 11.9854 20.2283 13.1812 20.2461 14.4095C20.2639 15.6378 19.9193 16.8441 19.2554 17.8777C18.5915 18.9113 17.6377 19.7263 16.5132 20.2209C15.3888 20.7155 14.1435 20.8678 12.933 20.6587C11.7225 20.4496 10.6004 19.8885 9.70703 19.0453C9.64732 18.9889 9.57708 18.9448 9.50032 18.9155C9.42356 18.8862 9.34179 18.8724 9.25967 18.8747C9.17754 18.877 9.09668 18.8955 9.0217 18.929C8.94672 18.9626 8.87908 19.0106 8.82266 19.0703C8.76623 19.13 8.72212 19.2003 8.69283 19.277C8.66355 19.3538 8.64967 19.4356 8.652 19.5177C8.65432 19.5998 8.67279 19.6807 8.70636 19.7557C8.73993 19.8306 8.78795 19.8983 8.84766 19.9547C9.73785 20.7948 10.8201 21.4042 12 21.7298C13.1799 22.0554 14.4215 22.0873 15.6166 21.8226C16.8116 21.558 17.9237 21.005 18.8559 20.2117C19.788 19.4184 20.5118 18.4091 20.9642 17.2718C21.4165 16.1344 21.5836 14.9037 21.4509 13.6869C21.3182 12.4701 20.8897 11.3043 20.2029 10.2912C19.516 9.27813 18.5916 8.44854 17.5104 7.87485C16.4292 7.30117 15.224 7.00082 14 7.00002Z" fill="#1C1C1C"/>
</svg>
