<svg width="16" height="17" viewBox="0 0 16 17" fill="none" xmlns="http://www.w3.org/2000/svg">
<path d="M14.35 14.8562C14.2566 14.9481 14.131 14.9998 14 15C13.8672 14.9994 13.7397 14.948 13.6437 14.8562L10.9437 12.15C9.80659 13.1051 8.34462 13.5844 6.86273 13.4878C5.38083 13.3912 3.99343 12.7263 2.98988 11.6316C1.98633 10.537 1.44412 9.09717 1.47633 7.61248C1.50855 6.12779 2.11269 4.71286 3.16277 3.66277C4.21286 2.61269 5.62779 2.00855 7.11248 1.97633C8.59717 1.94412 10.037 2.48633 11.1316 3.48988C12.2263 4.49343 12.8912 5.88083 12.9878 7.36273C13.0844 8.84462 12.6051 10.3066 11.65 11.4437L14.35 14.1437C14.3972 14.1903 14.4347 14.2457 14.4603 14.3069C14.486 14.368 14.4991 14.4337 14.4991 14.5C14.4991 14.5663 14.486 14.6319 14.4603 14.6931C14.4347 14.7542 14.3972 14.8097 14.35 14.8562ZM7.24997 12.5C8.18944 12.5 9.1078 12.2214 9.88893 11.6995C10.6701 11.1775 11.2789 10.4357 11.6384 9.56772C11.9979 8.69977 12.092 7.74471 11.9087 6.8233C11.7254 5.90189 11.273 5.05552 10.6087 4.39122C9.94443 3.72692 9.09806 3.27452 8.17665 3.09124C7.25524 2.90797 6.30018 3.00203 5.43223 3.36155C4.56428 3.72106 3.82243 4.32988 3.30049 5.11102C2.77856 5.89215 2.49997 6.81051 2.49997 7.74998C2.50163 9.00925 3.0026 10.2165 3.89304 11.1069C4.78348 11.9973 5.9907 12.4983 7.24997 12.5Z" fill="#1C1C1C" fill-opacity="0.2"/>
</svg>
