<svg width="16" height="16" viewBox="0 0 16 16" fill="none" xmlns="http://www.w3.org/2000/svg">
<path d="M10.16 15.1666H5.84002C4.58002 15.1666 3.66002 14.64 3.30669 13.7333C2.94002 12.7866 3.28002 11.6133 4.16002 10.82L7.25336 7.99998L4.16002 5.17998C3.28002 4.38665 2.94002 3.21331 3.30669 2.26665C3.66002 1.35331 4.58002 0.833313 5.84002 0.833313H10.16C11.42 0.833313 12.34 1.35998 12.6934 2.26665C13.06 3.21331 12.72 4.38665 11.84 5.17998L8.74669 7.99998L11.8467 10.82C12.72 11.6133 13.0667 12.7866 12.7 13.7333C12.34 14.64 11.42 15.1666 10.16 15.1666ZM8.00002 8.67331L4.83336 11.5533C4.27336 12.0666 4.02669 12.8133 4.24002 13.3666C4.44002 13.88 5.00669 14.1666 5.84002 14.1666H10.16C10.9934 14.1666 11.56 13.8866 11.76 13.3666C11.9734 12.8133 11.7334 12.0666 11.1667 11.5533L8.00002 8.67331ZM5.84002 1.83331C5.00669 1.83331 4.44002 2.11331 4.24002 2.63331C4.02669 3.18665 4.26669 3.93331 4.83336 4.44665L8.00002 7.32665L11.1667 4.44665C11.7267 3.93331 11.9734 3.18665 11.76 2.63331C11.56 2.11998 10.9934 1.83331 10.16 1.83331H5.84002Z" fill="#292D32"/>
</svg>
